<svg xmlns="http://www.w3.org/2000/svg" xmlns:xlink="http://www.w3.org/1999/xlink" width="500" zoomAndPan="magnify" viewBox="0 0 375 374.999991" height="500" preserveAspectRatio="xMidYMid meet" version="1.0"><defs><g/><clipPath id="90084d68b9"><path d="M 56.71875 31.3125 L 318.46875 31.3125 L 318.46875 271.3125 L 56.71875 271.3125 Z M 56.71875 31.3125 " clip-rule="nonzero"/></clipPath><clipPath id="e20d258e54"><path d="M 112.214844 129.035156 L 258.464844 129.035156 L 258.464844 244.535156 L 112.214844 244.535156 Z M 112.214844 129.035156 " clip-rule="nonzero"/></clipPath></defs><rect x="-37.5" width="450" fill="#ffffff" y="-37.499999" height="449.999989" fill-opacity="1"/><rect x="-37.5" width="450" fill="#f9fafb" y="-37.499999" height="449.999989" fill-opacity="1"/><g fill="#111827" fill-opacity="1"><g transform="translate(127.417969, 329.652194)"><g><path d="M 37.265625 -33.078125 L 23.296875 0 L 13.40625 0 L -0.484375 -33.078125 L 9.40625 -33.078125 L 18.5625 -10.578125 L 28.03125 -33.078125 Z M 37.265625 -33.078125 "/></g></g></g><g fill="#f97316" fill-opacity="1"><g transform="translate(162.222654, 329.652194)"><g><path d="M 8.046875 0.484375 C 6.367188 0.484375 4.957031 -0.0859375 3.8125 -1.234375 C 2.664062 -2.378906 2.09375 -3.8125 2.09375 -5.53125 C 2.09375 -7.289062 2.664062 -8.710938 3.8125 -9.796875 C 4.957031 -10.890625 6.367188 -11.4375 8.046875 -11.4375 C 9.734375 -11.4375 11.148438 -10.890625 12.296875 -9.796875 C 13.441406 -8.710938 14.015625 -7.289062 14.015625 -5.53125 C 14.015625 -3.8125 13.441406 -2.378906 12.296875 -1.234375 C 11.148438 -0.0859375 9.734375 0.484375 8.046875 0.484375 Z M 8.046875 0.484375 "/></g></g></g><g fill="#111827" fill-opacity="1"><g transform="translate(180.30468, 329.652194)"><g><path d="M 33.453125 -9.21875 L 13.46875 -9.21875 L 9.65625 0 L -0.546875 0 L 18.625 -43.03125 L 28.46875 -43.03125 L 47.71875 0 L 37.265625 0 Z M 30.3125 -16.78125 L 23.484375 -33.265625 L 16.65625 -16.78125 Z M 30.3125 -16.78125 "/></g></g></g><g fill="#111827" fill-opacity="1"><g transform="translate(227.395742, 329.652194)"><g><path d="M 5.109375 -43.03125 L 15.0625 -43.03125 L 15.0625 0 L 5.109375 0 Z M 5.109375 -43.03125 "/></g></g></g><path fill="#14b8a6" d="M 253.269531 178.722656 C 253.175781 182.121094 251.84375 184.214844 249.070312 185.453125 C 246.21875 186.726562 244.023438 185.605469 242.21875 183.566406 C 241.1875 182.40625 240.539062 180.898438 239.761719 179.523438 C 237.816406 176.105469 234.996094 173.710938 231.007812 173.734375 C 227.136719 173.761719 223.945312 175.582031 222.03125 179.183594 C 221.457031 180.265625 220.886719 181.359375 220.199219 182.367188 C 218 185.585938 214.964844 186.675781 212.074219 185.347656 C 208.886719 183.886719 207.515625 180.84375 208.585938 177.046875 C 210.878906 168.945312 216.347656 163.878906 224.265625 161.515625 C 235.925781 158.03125 249.113281 164.980469 252.617188 176.28125 C 252.902344 177.207031 253.121094 178.160156 253.269531 178.722656 Z M 253.269531 178.722656 " fill-opacity="1" fill-rule="nonzero"/><g clip-path="url(#90084d68b9)"><path fill="#14b8a6" d="M 318.210938 168.554688 C 318.125 157.617188 311.96875 149.925781 301.242188 147.640625 C 298.902344 147.144531 298.023438 146.128906 297.492188 144.050781 C 290.035156 114.832031 260.394531 95.558594 234.914062 96.183594 C 221.546875 96.507812 208.164062 96.242188 194.234375 96.242188 C 194.234375 87.894531 194.171875 80.046875 194.328125 72.203125 C 194.34375 71.347656 195.453125 70.214844 196.339844 69.726562 C 203.4375 65.832031 208.21875 57.867188 207.292969 50.730469 C 206.117188 41.683594 201.402344 35.179688 192.585938 32.292969 C 190.894531 31.738281 189.1875 31.445312 187.5 31.378906 C 185.8125 31.445312 184.105469 31.738281 182.410156 32.292969 C 173.59375 35.179688 168.878906 41.683594 167.703125 50.730469 C 166.777344 57.867188 171.558594 65.832031 178.65625 69.726562 C 179.542969 70.214844 180.652344 71.347656 180.671875 72.203125 C 180.824219 80.046875 180.761719 87.894531 180.761719 96.242188 C 166.832031 96.242188 153.449219 96.507812 140.082031 96.183594 C 114.601562 95.558594 84.960938 114.832031 77.503906 144.050781 C 76.972656 146.128906 76.09375 147.144531 73.757812 147.640625 C 63.027344 149.925781 56.875 157.617188 56.785156 168.554688 C 56.714844 177.523438 56.746094 186.496094 56.859375 195.46875 C 56.980469 205.300781 63.355469 213.425781 72.949219 215.777344 C 75.351562 216.367188 76.296875 217.410156 76.839844 219.765625 C 83.664062 249.402344 111.066406 271.175781 141.421875 271.1875 C 156.78125 271.195312 172.140625 271.214844 187.5 271.214844 C 202.855469 271.214844 218.214844 271.195312 233.574219 271.1875 C 263.929688 271.175781 291.335938 249.402344 298.15625 219.765625 C 298.699219 217.410156 299.648438 216.367188 302.046875 215.777344 C 311.640625 213.425781 318.015625 205.300781 318.136719 195.46875 C 318.25 186.496094 318.28125 177.523438 318.210938 168.554688 Z M 286.308594 200.851562 C 286.171875 206.199219 285.492188 211.660156 284.144531 216.828125 C 278.261719 239.398438 259.550781 255.257812 236.296875 256.421875 C 220.066406 257.234375 203.765625 256.585938 187.5 256.582031 C 171.230469 256.585938 154.929688 257.234375 138.703125 256.421875 C 115.445312 255.257812 96.734375 239.398438 90.851562 216.828125 C 89.503906 211.660156 88.824219 206.199219 88.6875 200.851562 C 88.378906 188.691406 88.515625 176.515625 88.609375 164.347656 C 88.847656 133.742188 112.304688 110.449219 142.921875 110.414062 C 157.78125 110.394531 172.640625 110.386719 187.5 110.386719 C 202.355469 110.386719 217.214844 110.394531 232.074219 110.414062 C 262.691406 110.449219 286.148438 133.742188 286.386719 164.347656 C 286.480469 176.515625 286.617188 188.691406 286.308594 200.851562 Z M 286.308594 200.851562 " fill-opacity="1" fill-rule="nonzero"/></g><path fill="#14b8a6" d="M 218.628906 209.519531 C 215.710938 208.253906 212.425781 209.238281 210.140625 212.066406 C 209.984375 212.257812 209.824219 212.445312 209.699219 212.652344 C 205.230469 220.097656 196.546875 224.445312 187.5 224.664062 C 178.449219 224.445312 169.765625 220.097656 165.300781 212.652344 C 165.175781 212.445312 165.011719 212.257812 164.855469 212.066406 C 162.574219 209.238281 159.285156 208.253906 156.371094 209.519531 C 153.363281 210.828125 151.621094 214.210938 152.804688 217.839844 C 153.605469 220.3125 155.078125 222.746094 156.804688 224.714844 C 164.949219 234 175.496094 237.972656 187.5 238.378906 C 199.5 237.972656 210.046875 234 218.195312 224.714844 C 219.917969 222.746094 221.390625 220.3125 222.195312 217.839844 C 223.375 214.210938 221.632812 210.828125 218.628906 209.519531 Z M 218.628906 209.519531 " fill-opacity="1" fill-rule="nonzero"/><path fill="#14b8a6" d="M 163.070312 173.585938 C 163.167969 162.789062 154.851562 154.277344 144.160156 154.230469 C 134.019531 154.183594 125.492188 162.730469 125.425781 173.015625 C 125.351562 184.117188 133.269531 192.324219 144.09375 192.375 C 154.730469 192.421875 162.972656 184.261719 163.070312 173.585938 Z M 163.070312 173.585938 " fill-opacity="1" fill-rule="nonzero"/><path fill="#111827" d="M 253.269531 178.722656 C 253.175781 182.121094 251.84375 184.214844 249.070312 185.453125 C 246.21875 186.726562 244.023438 185.605469 242.21875 183.566406 C 241.1875 182.40625 240.539062 180.898438 239.761719 179.523438 C 237.816406 176.105469 234.996094 173.710938 231.007812 173.734375 C 227.136719 173.761719 223.945312 175.582031 222.03125 179.183594 C 221.457031 180.265625 220.886719 181.359375 220.199219 182.367188 C 218 185.585938 214.964844 186.675781 212.074219 185.347656 C 208.886719 183.886719 207.515625 180.84375 208.585938 177.046875 C 210.878906 168.945312 216.347656 163.878906 224.265625 161.515625 C 235.925781 158.03125 249.113281 164.980469 252.617188 176.28125 C 252.902344 177.207031 253.121094 178.160156 253.269531 178.722656 Z M 253.269531 178.722656 " fill-opacity="1" fill-rule="nonzero"/><g clip-path="url(#e20d258e54)"><path fill="#111827" d="M 318.210938 168.554688 C 318.125 157.617188 311.96875 149.925781 301.242188 147.640625 C 298.902344 147.144531 298.023438 146.128906 297.492188 144.050781 C 290.035156 114.832031 260.394531 95.558594 234.914062 96.183594 C 221.546875 96.507812 208.164062 96.242188 194.234375 96.242188 C 194.234375 87.894531 194.171875 80.046875 194.328125 72.203125 C 194.34375 71.347656 195.453125 70.214844 196.339844 69.726562 C 203.4375 65.832031 208.21875 57.867188 207.292969 50.730469 C 206.117188 41.683594 201.402344 35.179688 192.585938 32.292969 C 190.894531 31.738281 189.1875 31.445312 187.5 31.378906 C 185.8125 31.445312 184.105469 31.738281 182.410156 32.292969 C 173.59375 35.179688 168.878906 41.683594 167.703125 50.730469 C 166.777344 57.867188 171.558594 65.832031 178.65625 69.726562 C 179.542969 70.214844 180.652344 71.347656 180.671875 72.203125 C 180.824219 80.046875 180.761719 87.894531 180.761719 96.242188 C 166.832031 96.242188 153.449219 96.507812 140.082031 96.183594 C 114.601562 95.558594 84.960938 114.832031 77.503906 144.050781 C 76.972656 146.128906 76.09375 147.144531 73.757812 147.640625 C 63.027344 149.925781 56.875 157.617188 56.785156 168.554688 C 56.714844 177.523438 56.746094 186.496094 56.859375 195.46875 C 56.980469 205.300781 63.355469 213.425781 72.949219 215.777344 C 75.351562 216.367188 76.296875 217.410156 76.839844 219.765625 C 83.664062 249.402344 111.066406 271.175781 141.421875 271.1875 C 156.78125 271.195312 172.140625 271.214844 187.5 271.214844 C 202.855469 271.214844 218.214844 271.195312 233.574219 271.1875 C 263.929688 271.175781 291.335938 249.402344 298.15625 219.765625 C 298.699219 217.410156 299.648438 216.367188 302.046875 215.777344 C 311.640625 213.425781 318.015625 205.300781 318.136719 195.46875 C 318.25 186.496094 318.28125 177.523438 318.210938 168.554688 Z M 286.308594 200.851562 C 286.171875 206.199219 285.492188 211.660156 284.144531 216.828125 C 278.261719 239.398438 259.550781 255.257812 236.296875 256.421875 C 220.066406 257.234375 203.765625 256.585938 187.5 256.582031 C 171.230469 256.585938 154.929688 257.234375 138.703125 256.421875 C 115.445312 255.257812 96.734375 239.398438 90.851562 216.828125 C 89.503906 211.660156 88.824219 206.199219 88.6875 200.851562 C 88.378906 188.691406 88.515625 176.515625 88.609375 164.347656 C 88.847656 133.742188 112.304688 110.449219 142.921875 110.414062 C 157.78125 110.394531 172.640625 110.386719 187.5 110.386719 C 202.355469 110.386719 217.214844 110.394531 232.074219 110.414062 C 262.691406 110.449219 286.148438 133.742188 286.386719 164.347656 C 286.480469 176.515625 286.617188 188.691406 286.308594 200.851562 Z M 286.308594 200.851562 " fill-opacity="1" fill-rule="nonzero"/></g><path fill="#111827" d="M 218.628906 209.519531 C 215.710938 208.253906 212.425781 209.238281 210.140625 212.066406 C 209.984375 212.257812 209.824219 212.445312 209.699219 212.652344 C 205.230469 220.097656 196.546875 224.445312 187.5 224.664062 C 178.449219 224.445312 169.765625 220.097656 165.300781 212.652344 C 165.175781 212.445312 165.011719 212.257812 164.855469 212.066406 C 162.574219 209.238281 159.285156 208.253906 156.371094 209.519531 C 153.363281 210.828125 151.621094 214.210938 152.804688 217.839844 C 153.605469 220.3125 155.078125 222.746094 156.804688 224.714844 C 164.949219 234 175.496094 237.972656 187.5 238.378906 C 199.5 237.972656 210.046875 234 218.195312 224.714844 C 219.917969 222.746094 221.390625 220.3125 222.195312 217.839844 C 223.375 214.210938 221.632812 210.828125 218.628906 209.519531 Z M 218.628906 209.519531 " fill-opacity="1" fill-rule="nonzero"/><path fill="#111827" d="M 163.070312 173.585938 C 163.167969 162.789062 154.851562 154.277344 144.160156 154.230469 C 134.019531 154.183594 125.492188 162.730469 125.425781 173.015625 C 125.351562 184.117188 133.269531 192.324219 144.09375 192.375 C 154.730469 192.421875 162.972656 184.261719 163.070312 173.585938 Z M 163.070312 173.585938 " fill-opacity="1" fill-rule="nonzero"/></svg>